<svg height="466pt" viewBox="0 -4 466.002 466" width="466pt" xmlns="http://www.w3.org/2000/svg"><path d="m162.382812 315.632812c22.667969 11.234376 46.984376 17.171876 70.328126 17.171876 35.675781 0 73.210937-13.914063 102.980468-38.179688 31.5-25.667969 51.859375-61.019531 57.707032-99.960938h39.605468c2.597656 0 4.984375-1.441406 6.195313-3.746093 1.207031-2.304688 1.039062-5.085938-.4375-7.230469l-44.804688-64.933594c-1.308593-1.894531-3.460937-3.023437-5.761719-3.023437-2.300781 0-4.457031 1.128906-5.761718 3.023437l-44.808594 64.933594c-1.476562 2.144531-1.644531 4.925781-.4375 7.230469 1.210938 2.304687 3.597656 3.746093 6.199219 3.746093h35.835937c-12.65625 76.859376-84.789062 124.140626-146.515625 124.140626-43.917969 0-90.507812-23.628907-118.6875-60.195313-2.371093-3.019531-6.734375-3.5625-9.777343-1.21875-3.039063 2.34375-3.625 6.699219-1.308594 9.765625 15.898437 20.441406 36.222656 37.015625 59.449218 48.476562zm0 0"/><path d="m72.046875 214.046875c1.308594 1.894531 3.460937 3.027344 5.761719 3.027344 2.300781 0 4.457031-1.132813 5.761718-3.027344l44.808594-64.933594c1.476563-2.140625 1.644532-4.925781.4375-7.230469-1.210937-2.300781-3.597656-3.746093-6.199218-3.746093h-35.835938c12.65625-76.855469 84.789062-124.140625 146.515625-124.140625 43.917969 0 90.507813 23.628906 118.683594 60.199218 2.375 3.023438 6.738281 3.566407 9.777343 1.222657 3.042969-2.34375 3.628907-6.703125 1.3125-9.765625-15.898437-20.445313-36.222656-37.019532-59.445312-48.480469-22.667969-11.234375-46.988281-17.171875-70.328125-17.171875-35.675781 0-73.210937 13.917969-102.980469 38.179688-31.5 25.671874-51.859375 61.023437-57.707031 99.960937h-39.605469c-2.601562 0-4.988281 1.445313-6.199218 3.746094-1.207032 2.304687-1.039063 5.089843.4375 7.230469zm0 0"/><path d="m294.980469 168.964844c-.015625-27.867188-18.589844-52.3125-45.433594-59.789063-26.84375-7.480469-55.382813 3.839844-69.804687 27.683594-14.421876 23.84375-11.191407 54.375 7.894531 74.675781 6.84375 7.21875 10.769531 16.710938 11.019531 26.652344-3.675781.4375-6.375 3.660156-6.164062 7.351562.214843 3.695313 3.265624 6.585938 6.964843 6.601563h67.089844c3.867187.023437 7.019531-3.089844 7.046875-6.957031.023438-3.863282-3.089844-7.019532-6.957031-7.042969.160156-9.730469 3.992187-18.765625 11.328125-26.441406 10.882812-11.574219 16.964844-26.847657 17.015625-42.734375zm0 0"/><path d="m212.503906 261.433594c-3.867187 0-7 3.136718-7 7 0 3.867187 3.132813 7 7 7h41c3.863282 0 7-3.132813 7-7 0-3.863282-3.136718-7-7-7zm0 0"/><path d="m238.601562 87.195312v-22.828124c0-3.867188-3.132812-7-7-7-3.867187 0-7 3.132812-7 7v22.828124c0 3.867188 3.132813 7 7 7 3.867188 0 7-3.132812 7-7zm0 0"/><path d="m309.609375 91.007812c-2.65625-2.8125-7.089844-2.9375-9.902344-.28125l-16.769531 15.839844c-2.8125 2.65625-2.9375 7.085938-.285156 9.898438 2.65625 2.808594 7.085937 2.9375 9.898437.28125l16.769531-15.839844c2.8125-2.65625 2.941407-7.085938.289063-9.898438zm0 0"/><path d="m182.472656 114.546875c2.753906-2.714844 2.785156-7.148437.070313-9.902344l-16.074219-16.304687c-2.71875-2.722656-7.125-2.738282-9.863281-.039063-2.738281 2.703125-2.785157 7.105469-.105469 9.863281l16.074219 16.308594c2.714843 2.753906 7.148437 2.785156 9.898437.070313zm0 0"/><path d="m227.289062 362.511719c-26.523437 0-48.027343 21.5-48.027343 48.023437 0 26.523438 21.503906 48.027344 48.027343 48.027344 26.523438 0 48.023438-21.503906 48.023438-48.027344-.027344-26.511718-21.511719-47.996094-48.023438-48.023437zm17.414063 55.542969c2.734375 2.730468 2.734375 7.164062 0 9.898437s-7.167969 2.734375-9.902344 0l-7.515625-7.515625-7.515625 7.515625c-2.730469 2.734375-7.164062 2.734375-9.898437 0s-2.734375-7.167969 0-9.898437l7.515625-7.519532-7.515625-7.515625c-2.734375-2.734375-2.734375-7.167969 0-9.902343 2.734375-2.730469 7.167968-2.730469 9.898437 0l7.515625 7.515624 7.515625-7.515624c2.734375-2.730469 7.167969-2.730469 9.902344 0 2.734375 2.734374 2.734375 7.167968 0 9.902343l-7.519531 7.515625zm0 0"/><path d="m48.027344 362.511719c-26.523438-.003907-48.027344 21.5-48.027344 48.023437 0 26.527344 21.503906 48.027344 48.027344 48.027344 26.523437 0 48.027344-21.5 48.027344-48.027344-.03125-26.511718-21.515626-47.996094-48.027344-48.023437zm25.363281 40.816406-27.003906 24.738281c-2.847657 2.605469-7.261719 2.421875-9.875-.414062l-14.265625-15.46875c-1.71875-1.832032-2.328125-4.449219-1.585938-6.855469.742188-2.402344 2.71875-4.222656 5.175782-4.769531 2.453124-.542969 5.015624.269531 6.703124 2.136718l9.53125 10.335938 21.863282-20.027344c2.851562-2.609375 7.28125-2.417968 9.890625.433594 2.613281 2.851562 2.417969 7.28125-.433594 9.890625zm0 0"/><path d="m417.976562 362.511719c-26.523437 0-48.027343 21.5-48.027343 48.023437 0 26.523438 21.503906 48.027344 48.027343 48.027344 26.523438 0 48.023438-21.5 48.027344-48.027344-.03125-26.511718-21.515625-47.996094-48.027344-48.023437zm25.363282 40.816406-27.007813 24.738281c-2.84375 2.605469-7.261719 2.421875-9.875-.414062l-14.261719-15.46875c-2.621093-2.839844-2.441406-7.269532.398438-9.890625 2.84375-2.621094 7.273438-2.441407 9.894531.402343l9.53125 10.335938 21.863281-20.027344c2.847657-2.609375 7.277344-2.417968 9.890626.433594 2.609374 2.851562 2.417968 7.28125-.433594 9.890625zm0 0"/><path d="m281.925781 398.804688 81.261719-.292969.050781 14-81.261719.292969zm0 0"/><path d="m102.722656 398.5h69.773438v14h-69.773438zm0 0"/></svg>